<mxfile host="app.diagrams.net" modified="2024-03-11T05:31:08.501Z" agent="Mozilla/5.0 (Windows NT 10.0; Win64; x64) AppleWebKit/537.36 (KHTML, like Gecko) Chrome/122.0.0.0 Safari/537.36 Edg/122.0.0.0" version="24.0.4" etag="3yBnH1XzyZYpofKkEnPi" type="github">
  <diagram name="Page-1" id="f3-f6CsVOp0OcUn2y7e4">
    <mxGraphModel>
      <root>
        <mxCell id="0" />
        <mxCell id="1" parent="0" />
      </root>
    </mxGraphModel>
  </diagram>
</mxfile>
